Output #0, mpeg, to '03.mpg':
    Stream #0:0: Video: mpeg1video, yuv420p, 640x480, q=2-31, 400 kb/s, 25 tbn
[mpeg @ 0xaaadb542db50] VBV buffer size not set, using default size of 230KB
If you want the mpeg file to be compliant to some specification
Like DVD, VCD or others, make sure you set the correct buffer size
视频编码
pts:0 pts_time:0 dts:-3600 dts_time:-0.04 duration:0 duration_time:0 stream_index:0
[mpeg @ 0xaaadb542db50] buffer underflow st=0 bufi=10406 size=29731
[mpeg @ 0xaaadb542db50] buffer underflow st=0 bufi=12447 size=29731
[mpeg @ 0xaaadb542db50] buffer underflow st=0 bufi=14488 size=29731
[mpeg @ 0xaaadb542db50] buffer underflow st=0 bufi=16529 size=29731
[mpeg @ 0xaaadb542db50] buffer underflow st=0 bufi=18570 size=29731
[mpeg @ 0xaaadb542db50] buffer underflow st=0 bufi=20611 size=29731
[mpeg @ 0xaaadb542db50] buffer underflow st=0 bufi=22652 size=29731
[mpeg @ 0xaaadb542db50] buffer underflow st=0 bufi=24693 size=29731
[mpeg @ 0xaaadb542db50] buffer underflow st=0 bufi=26734 size=29731
[mpeg @ 0xaaadb542db50] buffer underflow st=0 bufi=28775 size=29731
pts:3600 pts_time:0.04 dts:0 dts_time:0 duration:0 duration_time:0 stream_index:0
[mpeg @ 0xaaadb542db50] buffer underflow st=0 bufi=1076 size=10803
[mpeg @ 0xaaadb542db50] buffer underflow st=0 bufi=3117 size=10803
[mpeg @ 0xaaadb542db50] buffer underflow st=0 bufi=5158 size=10803
[mpeg @ 0xaaadb542db50] buffer underflow st=0 bufi=7199 size=10803
[mpeg @ 0xaaadb542db50] buffer underflow st=0 bufi=9240 size=10803
pts:7200 pts_time:0.08 dts:3600 dts_time:0.04 duration:0 duration_time:0 stream_index:0
[mpeg @ 0xaaadb542db50] buffer underflow st=0 bufi=469 size=33720
[mpeg @ 0xaaadb542db50] buffer underflow st=0 bufi=2510 size=33720
[mpeg @ 0xaaadb542db50] buffer underflow st=0 bufi=4551 size=33720
[mpeg @ 0xaaadb542db50] buffer underflow st=0 bufi=6592 size=33720
[mpeg @ 0xaaadb542db50] buffer underflow st=0 bufi=8633 size=33720
[mpeg @ 0xaaadb542db50] buffer underflow st=0 bufi=10674 size=33720
[mpeg @ 0xaaadb542db50] buffer underflow st=0 bufi=12715 size=33720
[mpeg @ 0xaaadb542db50] buffer underflow st=0 bufi=14756 size=33720
[mpeg @ 0xaaadb542db50] buffer underflow st=0 bufi=16797 size=33720
[mpeg @ 0xaaadb542db50] buffer underflow st=0 bufi=18838 size=33720
[mpeg @ 0xaaadb542db50] buffer underflow st=0 bufi=20879 size=33720
[mpeg @ 0xaaadb542db50] buffer underflow st=0 bufi=22920 size=33720
[mpeg @ 0xaaadb542db50] buffer underflow st=0 bufi=24961 size=33720
[mpeg @ 0xaaadb542db50] buffer underflow st=0 bufi=27002 size=33720
[mpeg @ 0xaaadb542db50] buffer underflow st=0 bufi=29043 size=33720
[mpeg @ 0xaaadb542db50] buffer underflow st=0 bufi=31084 size=33720
[mpeg @ 0xaaadb542db50] buffer underflow st=0 bufi=33125 size=33720
pts:10800 pts_time:0.12 dts:7200 dts_time:0.08 duration:0 duration_time:0 stream_index:0
pts:14400 pts_time:0.16 dts:10800 dts_time:0.12 duration:0 duration_time:0 stream_index:0
pts:18000 pts_time:0.2 dts:14400 dts_time:0.16 duration:0 duration_time:0 stream_index:0
pts:21600 pts_time:0.24 dts:18000 dts_time:0.2 duration:0 duration_time:0 stream_index:0
pts:25200 pts_time:0.28 dts:21600 dts_time:0.24 duration:0 duration_time:0 stream_index:0
[mpeg @ 0xaaadb542db50] buffer underflow st=0 bufi=182 size=204
pts:28800 pts_time:0.32 dts:25200 dts_time:0.28 duration:0 duration_time:0 stream_index:0
[mpeg @ 0xaaadb542db50] buffer underflow st=0 bufi=2010 size=2826
pts:32400 pts_time:0.36 dts:28800 dts_time:0.32 duration:0 duration_time:0 stream_index:0
pts:36000 pts_time:0.4 dts:32400 dts_time:0.36 duration:0 duration_time:0 stream_index:0
pts:39600 pts_time:0.44 dts:36000 dts_time:0.4 duration:0 duration_time:0 stream_index:0
[mpeg @ 0xaaadb542db50] buffer underflow st=0 bufi=893 size=17426
[mpeg @ 0xaaadb542db50] buffer underflow st=0 bufi=2934 size=17426
[mpeg @ 0xaaadb542db50] buffer underflow st=0 bufi=4975 size=17426
[mpeg @ 0xaaadb542db50] buffer underflow st=0 bufi=7016 size=17426
[mpeg @ 0xaaadb542db50] buffer underflow st=0 bufi=9045 size=17426
[mpeg @ 0xaaadb542db50] buffer underflow st=0 bufi=11086 size=17426
[mpeg @ 0xaaadb542db50] buffer underflow st=0 bufi=13127 size=17426
[mpeg @ 0xaaadb542db50] buffer underflow st=0 bufi=15168 size=17426
[mpeg @ 0xaaadb542db50] buffer underflow st=0 bufi=17209 size=17426
pts:43200 pts_time:0.48 dts:39600 dts_time:0.44 duration:0 duration_time:0 stream_index:0
[mpeg @ 0xaaadb542db50] buffer underflow st=0 bufi=1815 size=11499
[mpeg @ 0xaaadb542db50] buffer underflow st=0 bufi=3856 size=11499
[mpeg @ 0xaaadb542db50] buffer underflow st=0 bufi=5897 size=11499
[mpeg @ 0xaaadb542db50] buffer underflow st=0 bufi=7938 size=11499
[mpeg @ 0xaaadb542db50] buffer underflow st=0 bufi=9979 size=11499
pts:46800 pts_time:0.52 dts:43200 dts_time:0.48 duration:0 duration_time:0 stream_index:0
[mpeg @ 0xaaadb542db50] buffer underflow st=0 bufi=512 size=1101
pts:50400 pts_time:0.56 dts:46800 dts_time:0.52 duration:0 duration_time:0 stream_index:0
[mpeg @ 0xaaadb542db50] buffer underflow st=0 bufi=1443 size=9420
[mpeg @ 0xaaadb542db50] buffer underflow st=0 bufi=3484 size=9420
[mpeg @ 0xaaadb542db50] buffer underflow st=0 bufi=5525 size=9420
[mpeg @ 0xaaadb542db50] buffer underflow st=0 bufi=7566 size=9420
pts:54000 pts_time:0.6 dts:50400 dts_time:0.56 duration:0 duration_time:0 stream_index:0
[mpeg @ 0xaaadb542db50] buffer underflow st=0 bufi=178 size=740
pts:57600 pts_time:0.64 dts:54000 dts_time:0.6 duration:0 duration_time:0 stream_index:0
[mpeg @ 0xaaadb542db50] buffer underflow st=0 bufi=1470 size=5951
[mpeg @ 0xaaadb542db50] buffer underflow st=0 bufi=3511 size=5951
[mpeg @ 0xaaadb542db50] buffer underflow st=0 bufi=5552 size=5951
pts:61200 pts_time:0.68 dts:57600 dts_time:0.64 duration:0 duration_time:0 stream_index:0
pts:64800 pts_time:0.72 dts:61200 dts_time:0.68 duration:0 duration_time:0 stream_index:0
[mpeg @ 0xaaadb542db50] buffer underflow st=0 bufi=1111 size=6510
[mpeg @ 0xaaadb542db50] buffer underflow st=0 bufi=3152 size=6510
[mpeg @ 0xaaadb542db50] buffer underflow st=0 bufi=5193 size=6510
pts:68400 pts_time:0.76 dts:64800 dts_time:0.72 duration:0 duration_time:0 stream_index:0
pts:72000 pts_time:0.8 dts:68400 dts_time:0.76 duration:0 duration_time:0 stream_index:0
[mpeg @ 0xaaadb542db50] buffer underflow st=0 bufi=176 size=4901
[mpeg @ 0xaaadb542db50] buffer underflow st=0 bufi=2217 size=4901
[mpeg @ 0xaaadb542db50] buffer underflow st=0 bufi=4258 size=4901
pts:75600 pts_time:0.84 dts:72000 dts_time:0.8 duration:0 duration_time:0 stream_index:0
pts:79200 pts_time:0.88 dts:75600 dts_time:0.84 duration:0 duration_time:0 stream_index:0
[mpeg @ 0xaaadb542db50] buffer underflow st=0 bufi=828 size=7763
[mpeg @ 0xaaadb542db50] buffer underflow st=0 bufi=2869 size=7763
[mpeg @ 0xaaadb542db50] buffer underflow st=0 bufi=4910 size=7763
[mpeg @ 0xaaadb542db50] buffer underflow st=0 bufi=6951 size=7763
pts:82800 pts_time:0.92 dts:79200 dts_time:0.88 duration:0 duration_time:0 stream_index:0
[mpeg @ 0xaaadb542db50] buffer underflow st=0 bufi=1220 size=13079
[mpeg @ 0xaaadb542db50] buffer underflow st=0 bufi=3261 size=13079
[mpeg @ 0xaaadb542db50] buffer underflow st=0 bufi=5302 size=13079
[mpeg @ 0xaaadb542db50] buffer underflow st=0 bufi=7343 size=13079
[mpeg @ 0xaaadb542db50] buffer underflow st=0 bufi=9384 size=13079
[mpeg @ 0xaaadb542db50] buffer underflow st=0 bufi=11425 size=13079
pts:86400 pts_time:0.96 dts:82800 dts_time:0.92 duration:0 duration_time:0 stream_index:0
[mpeg @ 0xaaadb542db50] buffer underflow st=0 bufi=378 size=2619
[mpeg @ 0xaaadb542db50] buffer underflow st=0 bufi=2419 size=2619
pts:90000 pts_time:1 dts:86400 dts_time:0.96 duration:0 duration_time:0 stream_index:0
pts:93600 pts_time:1.04 dts:90000 dts_time:1 duration:0 duration_time:0 stream_index:0
[mpeg @ 0xaaadb542db50] buffer underflow st=0 bufi=1286 size=5554
[mpeg @ 0xaaadb542db50] buffer underflow st=0 bufi=3327 size=5554
[mpeg @ 0xaaadb542db50] buffer underflow st=0 bufi=5368 size=5554
pts:97200 pts_time:1.08 dts:93600 dts_time:1.04 duration:0 duration_time:0 stream_index:0
pts:100800 pts_time:1.12 dts:97200 dts_time:1.08 duration:0 duration_time:0 stream_index:0
[mpeg @ 0xaaadb542db50] buffer underflow st=0 bufi=1385 size=2454
pts:104400 pts_time:1.16 dts:100800 dts_time:1.12 duration:0 duration_time:0 stream_index:0
[mpeg @ 0xaaadb542db50] buffer underflow st=0 bufi=963 size=1159
pts:108000 pts_time:1.2 dts:104400 dts_time:1.16 duration:0 duration_time:0 stream_index:0
pts:111600 pts_time:1.24 dts:108000 dts_time:1.2 duration:0 duration_time:0 stream_index:0
pts:115200 pts_time:1.28 dts:111600 dts_time:1.24 duration:0 duration_time:0 stream_index:0
[mpeg @ 0xaaadb542db50] buffer underflow st=0 bufi=132 size=6751
[mpeg @ 0xaaadb542db50] buffer underflow st=0 bufi=2173 size=6751
[mpeg @ 0xaaadb542db50] buffer underflow st=0 bufi=4214 size=6751
[mpeg @ 0xaaadb542db50] buffer underflow st=0 bufi=6255 size=6751
pts:118800 pts_time:1.32 dts:115200 dts_time:1.28 duration:0 duration_time:0 stream_index:0
pts:122400 pts_time:1.36 dts:118800 dts_time:1.32 duration:0 duration_time:0 stream_index:0
pts:126000 pts_time:1.4 dts:122400 dts_time:1.36 duration:0 duration_time:0 stream_index:0
[mpeg @ 0xaaadb542db50] buffer underflow st=0 bufi=421 size=14950
[mpeg @ 0xaaadb542db50] buffer underflow st=0 bufi=2462 size=14950
[mpeg @ 0xaaadb542db50] buffer underflow st=0 bufi=4503 size=14950
[mpeg @ 0xaaadb542db50] buffer underflow st=0 bufi=6544 size=14950
[mpeg @ 0xaaadb542db50] buffer underflow st=0 bufi=8585 size=14950
[mpeg @ 0xaaadb542db50] buffer underflow st=0 bufi=10626 size=14950
[mpeg @ 0xaaadb542db50] buffer underflow st=0 bufi=12655 size=14950
[mpeg @ 0xaaadb542db50] buffer underflow st=0 bufi=14696 size=14950
pts:129600 pts_time:1.44 dts:126000 dts_time:1.4 duration:0 duration_time:0 stream_index:0
pts:133200 pts_time:1.48 dts:129600 dts_time:1.44 duration:0 duration_time:0 stream_index:0
pts:136800 pts_time:1.52 dts:133200 dts_time:1.48 duration:0 duration_time:0 stream_index:0
[mpeg @ 0xaaadb542db50] buffer underflow st=0 bufi=992 size=3130
[mpeg @ 0xaaadb542db50] buffer underflow st=0 bufi=3033 size=3130
pts:140400 pts_time:1.56 dts:136800 dts_time:1.52 duration:0 duration_time:0 stream_index:0
pts:144000 pts_time:1.6 dts:140400 dts_time:1.56 duration:0 duration_time:0 stream_index:0
[mpeg @ 0xaaadb542db50] buffer underflow st=0 bufi=1581 size=2781
pts:147600 pts_time:1.64 dts:144000 dts_time:1.6 duration:0 duration_time:0 stream_index:0
pts:151200 pts_time:1.68 dts:147600 dts_time:1.64 duration:0 duration_time:0 stream_index:0
[mpeg @ 0xaaadb542db50] buffer underflow st=0 bufi=177 size=268
pts:154800 pts_time:1.72 dts:151200 dts_time:1.68 duration:0 duration_time:0 stream_index:0
pts:158400 pts_time:1.76 dts:154800 dts_time:1.72 duration:0 duration_time:0 stream_index:0
[mpeg @ 0xaaadb542db50] buffer underflow st=0 bufi=1254 size=1364
pts:162000 pts_time:1.8 dts:158400 dts_time:1.76 duration:0 duration_time:0 stream_index:0
pts:165600 pts_time:1.84 dts:162000 dts_time:1.8 duration:0 duration_time:0 stream_index:0
[mpeg @ 0xaaadb542db50] buffer underflow st=0 bufi=460 size=682
pts:169200 pts_time:1.88 dts:165600 dts_time:1.84 duration:0 duration_time:0 stream_index:0
[mpeg @ 0xaaadb542db50] buffer underflow st=0 bufi=1810 size=23188
[mpeg @ 0xaaadb542db50] buffer underflow st=0 bufi=3851 size=23188
[mpeg @ 0xaaadb542db50] buffer underflow st=0 bufi=5892 size=23188
[mpeg @ 0xaaadb542db50] buffer underflow st=0 bufi=7933 size=23188
[mpeg @ 0xaaadb542db50] buffer underflow st=0 bufi=9974 size=23188
[mpeg @ 0xaaadb542db50] buffer underflow st=0 bufi=12015 size=23188
[mpeg @ 0xaaadb542db50] buffer underflow st=0 bufi=14056 size=23188
[mpeg @ 0xaaadb542db50] buffer underflow st=0 bufi=16097 size=23188
[mpeg @ 0xaaadb542db50] buffer underflow st=0 bufi=18138 size=23188
[mpeg @ 0xaaadb542db50] buffer underflow st=0 bufi=20179 size=23188
[mpeg @ 0xaaadb542db50] buffer underflow st=0 bufi=22220 size=23188
pts:172800 pts_time:1.92 dts:169200 dts_time:1.88 duration:0 duration_time:0 stream_index:0
pts:176400 pts_time:1.96 dts:172800 dts_time:1.92 duration:0 duration_time:0 stream_index:0
[mpeg @ 0xaaadb542db50] buffer underflow st=0 bufi=702 size=783
pts:180000 pts_time:2 dts:176400 dts_time:1.96 duration:0 duration_time:0 stream_index:0
[mpeg @ 0xaaadb542db50] buffer underflow st=0 bufi=1951 size=5264
[mpeg @ 0xaaadb542db50] buffer underflow st=0 bufi=3992 size=5264
pts:183600 pts_time:2.04 dts:180000 dts_time:2 duration:0 duration_time:0 stream_index:0
[mpeg @ 0xaaadb542db50] buffer underflow st=0 bufi=760 size=952
pts:187200 pts_time:2.08 dts:183600 dts_time:2.04 duration:0 duration_time:0 stream_index:0
pts:190800 pts_time:2.12 dts:187200 dts_time:2.08 duration:0 duration_time:0 stream_index:0
pts:194400 pts_time:2.16 dts:190800 dts_time:2.12 duration:0 duration_time:0 stream_index:0
[mpeg @ 0xaaadb542db50] buffer underflow st=0 bufi=351 size=725
pts:198000 pts_time:2.2 dts:194400 dts_time:2.16 duration:0 duration_time:0 stream_index:0
pts:201600 pts_time:2.24 dts:198000 dts_time:2.2 duration:0 duration_time:0 stream_index:0
[mpeg @ 0xaaadb542db50] buffer underflow st=0 bufi=964 size=993
pts:205200 pts_time:2.28 dts:201600 dts_time:2.24 duration:0 duration_time:0 stream_index:0
[mpeg @ 0xaaadb542db50] buffer underflow st=0 bufi=2003 size=2638
pts:208800 pts_time:2.32 dts:205200 dts_time:2.28 duration:0 duration_time:0 stream_index:0
pts:212400 pts_time:2.36 dts:208800 dts_time:2.32 duration:0 duration_time:0 stream_index:0
[mpeg @ 0xaaadb542db50] buffer underflow st=0 bufi=1164 size=27729
[mpeg @ 0xaaadb542db50] buffer underflow st=0 bufi=3205 size=27729
[mpeg @ 0xaaadb542db50] buffer underflow st=0 bufi=5246 size=27729
[mpeg @ 0xaaadb542db50] buffer underflow st=0 bufi=7287 size=27729
[mpeg @ 0xaaadb542db50] buffer underflow st=0 bufi=9328 size=27729
[mpeg @ 0xaaadb542db50] buffer underflow st=0 bufi=11369 size=27729
[mpeg @ 0xaaadb542db50] buffer underflow st=0 bufi=13410 size=27729
[mpeg @ 0xaaadb542db50] buffer underflow st=0 bufi=15451 size=27729
[mpeg @ 0xaaadb542db50] buffer underflow st=0 bufi=17492 size=27729
[mpeg @ 0xaaadb542db50] buffer underflow st=0 bufi=19533 size=27729
[mpeg @ 0xaaadb542db50] buffer underflow st=0 bufi=21574 size=27729
[mpeg @ 0xaaadb542db50] buffer underflow st=0 bufi=23615 size=27729
[mpeg @ 0xaaadb542db50] buffer underflow st=0 bufi=25656 size=27729
[mpeg @ 0xaaadb542db50] buffer underflow st=0 bufi=27697 size=27729
pts:216000 pts_time:2.4 dts:212400 dts_time:2.36 duration:0 duration_time:0 stream_index:0
[mpeg @ 0xaaadb542db50] buffer underflow st=0 bufi=2000 size=4120
[mpeg @ 0xaaadb542db50] buffer underflow st=0 bufi=4041 size=4120
pts:219600 pts_time:2.44 dts:216000 dts_time:2.4 duration:0 duration_time:0 stream_index:0
pts:223200 pts_time:2.48 dts:219600 dts_time:2.44 duration:0 duration_time:0 stream_index:0
[mpeg @ 0xaaadb542db50] buffer underflow st=0 bufi=1485 size=3185
pts:226800 pts_time:2.52 dts:223200 dts_time:2.48 duration:0 duration_time:0 stream_index:0
[mpeg @ 0xaaadb542db50] buffer underflow st=0 bufi=332 size=392
pts:230400 pts_time:2.56 dts:226800 dts_time:2.52 duration:0 duration_time:0 stream_index:0
pts:234000 pts_time:2.6 dts:230400 dts_time:2.56 duration:0 duration_time:0 stream_index:0
pts:237600 pts_time:2.64 dts:234000 dts_time:2.6 duration:0 duration_time:0 stream_index:0
[mpeg @ 0xaaadb542db50] buffer underflow st=0 bufi=462 size=2194
pts:241200 pts_time:2.68 dts:237600 dts_time:2.64 duration:0 duration_time:0 stream_index:0
pts:244800 pts_time:2.72 dts:241200 dts_time:2.68 duration:0 duration_time:0 stream_index:0
[mpeg @ 0xaaadb542db50] buffer underflow st=0 bufi=37 size=2451
[mpeg @ 0xaaadb542db50] buffer underflow st=0 bufi=2078 size=2451
pts:248400 pts_time:2.76 dts:244800 dts_time:2.72 duration:0 duration_time:0 stream_index:0
pts:252000 pts_time:2.8 dts:248400 dts_time:2.76 duration:0 duration_time:0 stream_index:0
[mpeg @ 0xaaadb542db50] buffer underflow st=0 bufi=697 size=1941
pts:255600 pts_time:2.84 dts:252000 dts_time:2.8 duration:0 duration_time:0 stream_index:0
[mpeg @ 0xaaadb542db50] buffer underflow st=0 bufi=788 size=27485
[mpeg @ 0xaaadb542db50] buffer underflow st=0 bufi=2829 size=27485
[mpeg @ 0xaaadb542db50] buffer underflow st=0 bufi=4870 size=27485
[mpeg @ 0xaaadb542db50] buffer underflow st=0 bufi=6911 size=27485
[mpeg @ 0xaaadb542db50] buffer underflow st=0 bufi=8940 size=27485
[mpeg @ 0xaaadb542db50] buffer underflow st=0 bufi=10981 size=27485
[mpeg @ 0xaaadb542db50] buffer underflow st=0 bufi=13022 size=27485
[mpeg @ 0xaaadb542db50] buffer underflow st=0 bufi=15063 size=27485
[mpeg @ 0xaaadb542db50] buffer underflow st=0 bufi=17104 size=27485
[mpeg @ 0xaaadb542db50] buffer underflow st=0 bufi=19145 size=27485
[mpeg @ 0xaaadb542db50] buffer underflow st=0 bufi=21186 size=27485
[mpeg @ 0xaaadb542db50] buffer underflow st=0 bufi=23227 size=27485
[mpeg @ 0xaaadb542db50] buffer underflow st=0 bufi=25268 size=27485
[mpeg @ 0xaaadb542db50] buffer underflow st=0 bufi=27309 size=27485
pts:259200 pts_time:2.88 dts:255600 dts_time:2.84 duration:0 duration_time:0 stream_index:0
pts:262800 pts_time:2.92 dts:259200 dts_time:2.88 duration:0 duration_time:0 stream_index:0
pts:266400 pts_time:2.96 dts:262800 dts_time:2.92 duration:0 duration_time:0 stream_index:0
[mpeg @ 0xaaadb542db50] buffer underflow st=0 bufi=1443 size=6500
[mpeg @ 0xaaadb542db50] buffer underflow st=0 bufi=3484 size=6500
[mpeg @ 0xaaadb542db50] buffer underflow st=0 bufi=5525 size=6500
pts:270000 pts_time:3 dts:266400 dts_time:2.96 duration:0 duration_time:0 stream_index:0
pts:273600 pts_time:3.04 dts:270000 dts_time:3 duration:0 duration_time:0 stream_index:0
[mpeg @ 0xaaadb542db50] buffer underflow st=0 bufi=574 size=1071
pts:277200 pts_time:3.08 dts:273600 dts_time:3.04 duration:0 duration_time:0 stream_index:0
pts:280800 pts_time:3.12 dts:277200 dts_time:3.08 duration:0 duration_time:0 stream_index:0
pts:284400 pts_time:3.16 dts:280800 dts_time:3.12 duration:0 duration_time:0 stream_index:0
[mpeg @ 0xaaadb542db50] buffer underflow st=0 bufi=662 size=1668
pts:288000 pts_time:3.2 dts:284400 dts_time:3.16 duration:0 duration_time:0 stream_index:0
pts:291600 pts_time:3.24 dts:288000 dts_time:3.2 duration:0 duration_time:0 stream_index:0
[mpeg @ 0xaaadb542db50] buffer underflow st=0 bufi=168 size=201
pts:295200 pts_time:3.28 dts:291600 dts_time:3.24 duration:0 duration_time:0 stream_index:0
[mpeg @ 0xaaadb542db50] buffer underflow st=0 bufi=1999 size=5528
[mpeg @ 0xaaadb542db50] buffer underflow st=0 bufi=4040 size=5528
pts:298800 pts_time:3.32 dts:295200 dts_time:3.28 duration:0 duration_time:0 stream_index:0
[mpeg @ 0xaaadb542db50] buffer underflow st=0 bufi=544 size=42073
[mpeg @ 0xaaadb542db50] buffer underflow st=0 bufi=2585 size=42073
[mpeg @ 0xaaadb542db50] buffer underflow st=0 bufi=4626 size=42073
[mpeg @ 0xaaadb542db50] buffer underflow st=0 bufi=6667 size=42073
[mpeg @ 0xaaadb542db50] buffer underflow st=0 bufi=8708 size=42073
[mpeg @ 0xaaadb542db50] buffer underflow st=0 bufi=10749 size=42073
[mpeg @ 0xaaadb542db50] buffer underflow st=0 bufi=12790 size=42073
[mpeg @ 0xaaadb542db50] buffer underflow st=0 bufi=14831 size=42073
[mpeg @ 0xaaadb542db50] buffer underflow st=0 bufi=16872 size=42073
[mpeg @ 0xaaadb542db50] buffer underflow st=0 bufi=18913 size=42073
[mpeg @ 0xaaadb542db50] buffer underflow st=0 bufi=20954 size=42073
[mpeg @ 0xaaadb542db50] buffer underflow st=0 bufi=22995 size=42073
[mpeg @ 0xaaadb542db50] buffer underflow st=0 bufi=25036 size=42073
[mpeg @ 0xaaadb542db50] buffer underflow st=0 bufi=27077 size=42073
[mpeg @ 0xaaadb542db50] buffer underflow st=0 bufi=29118 size=42073
[mpeg @ 0xaaadb542db50] buffer underflow st=0 bufi=31159 size=42073
[mpeg @ 0xaaadb542db50] buffer underflow st=0 bufi=33200 size=42073
[mpeg @ 0xaaadb542db50] buffer underflow st=0 bufi=35241 size=42073
[mpeg @ 0xaaadb542db50] buffer underflow st=0 bufi=37282 size=42073
[mpeg @ 0xaaadb542db50] buffer underflow st=0 bufi=39323 size=42073
[mpeg @ 0xaaadb542db50] buffer underflow st=0 bufi=41364 size=42073
pts:302400 pts_time:3.36 dts:298800 dts_time:3.32 duration:0 duration_time:0 stream_index:0
pts:306000 pts_time:3.4 dts:302400 dts_time:3.36 duration:0 duration_time:0 stream_index:0
pts:309600 pts_time:3.44 dts:306000 dts_time:3.4 duration:0 duration_time:0 stream_index:0
[mpeg @ 0xaaadb542db50] buffer underflow st=0 bufi=927 size=8300
[mpeg @ 0xaaadb542db50] buffer underflow st=0 bufi=2968 size=8300
[mpeg @ 0xaaadb542db50] buffer underflow st=0 bufi=5009 size=8300
[mpeg @ 0xaaadb542db50] buffer underflow st=0 bufi=7050 size=8300
pts:313200 pts_time:3.48 dts:309600 dts_time:3.44 duration:0 duration_time:0 stream_index:0
pts:316800 pts_time:3.52 dts:313200 dts_time:3.48 duration:0 duration_time:0 stream_index:0
pts:320400 pts_time:3.56 dts:316800 dts_time:3.52 duration:0 duration_time:0 stream_index:0
[mpeg @ 0xaaadb542db50] buffer underflow st=0 bufi=501 size=513
pts:324000 pts_time:3.6 dts:320400 dts_time:3.56 duration:0 duration_time:0 stream_index:0
[mpeg @ 0xaaadb542db50] buffer underflow st=0 bufi=1656 size=7277
[mpeg @ 0xaaadb542db50] buffer underflow st=0 bufi=3697 size=7277
[mpeg @ 0xaaadb542db50] buffer underflow st=0 bufi=5738 size=7277
pts:327600 pts_time:3.64 dts:324000 dts_time:3.6 duration:0 duration_time:0 stream_index:0
pts:331200 pts_time:3.68 dts:327600 dts_time:3.64 duration:0 duration_time:0 stream_index:0
pts:334800 pts_time:3.72 dts:331200 dts_time:3.68 duration:0 duration_time:0 stream_index:0
[mpeg @ 0xaaadb542db50] buffer underflow st=0 bufi=126 size=231
pts:338400 pts_time:3.76 dts:334800 dts_time:3.72 duration:0 duration_time:0 stream_index:0
[mpeg @ 0xaaadb542db50] buffer underflow st=0 bufi=1927 size=3417
pts:342000 pts_time:3.8 dts:338400 dts_time:3.76 duration:0 duration_time:0 stream_index:0
[mpeg @ 0xaaadb542db50] buffer underflow st=0 bufi=542 size=37322
[mpeg @ 0xaaadb542db50] buffer underflow st=0 bufi=2583 size=37322
[mpeg @ 0xaaadb542db50] buffer underflow st=0 bufi=4624 size=37322
[mpeg @ 0xaaadb542db50] buffer underflow st=0 bufi=6653 size=37322
[mpeg @ 0xaaadb542db50] buffer underflow st=0 bufi=8694 size=37322
[mpeg @ 0xaaadb542db50] buffer underflow st=0 bufi=10735 size=37322
[mpeg @ 0xaaadb542db50] buffer underflow st=0 bufi=12776 size=37322
[mpeg @ 0xaaadb542db50] buffer underflow st=0 bufi=14817 size=37322
[mpeg @ 0xaaadb542db50] buffer underflow st=0 bufi=16858 size=37322
[mpeg @ 0xaaadb542db50] buffer underflow st=0 bufi=18899 size=37322
[mpeg @ 0xaaadb542db50] buffer underflow st=0 bufi=20940 size=37322
[mpeg @ 0xaaadb542db50] buffer underflow st=0 bufi=22981 size=37322
[mpeg @ 0xaaadb542db50] buffer underflow st=0 bufi=25022 size=37322
[mpeg @ 0xaaadb542db50] buffer underflow st=0 bufi=27063 size=37322
[mpeg @ 0xaaadb542db50] buffer underflow st=0 bufi=29104 size=37322
[mpeg @ 0xaaadb542db50] buffer underflow st=0 bufi=31145 size=37322
[mpeg @ 0xaaadb542db50] buffer underflow st=0 bufi=33186 size=37322
[mpeg @ 0xaaadb542db50] buffer underflow st=0 bufi=35227 size=37322
[mpeg @ 0xaaadb542db50] buffer underflow st=0 bufi=37268 size=37322
pts:345600 pts_time:3.84 dts:342000 dts_time:3.8 duration:0 duration_time:0 stream_index:0
pts:349200 pts_time:3.88 dts:345600 dts_time:3.84 duration:0 duration_time:0 stream_index:0
pts:352800 pts_time:3.92 dts:349200 dts_time:3.88 duration:0 duration_time:0 stream_index:0
[mpeg @ 0xaaadb542db50] buffer underflow st=0 bufi=1748 size=7293
[mpeg @ 0xaaadb542db50] buffer underflow st=0 bufi=3789 size=7293
[mpeg @ 0xaaadb542db50] buffer underflow st=0 bufi=5830 size=7293
pts:356400 pts_time:3.96 dts:352800 dts_time:3.92 duration:0 duration_time:0 stream_index:0
[mpeg @ 0xaaadb542db50] buffer underflow st=0 bufi=569 size=2217
pts:360000 pts_time:4 dts:356400 dts_time:3.96 duration:0 duration_time:0 stream_index:0
[mpeg @ 0xaaadb542db50] buffer underflow st=0 bufi=384 size=19321
[mpeg @ 0xaaadb542db50] buffer underflow st=0 bufi=2425 size=19321
[mpeg @ 0xaaadb542db50] buffer underflow st=0 bufi=4466 size=19321
[mpeg @ 0xaaadb542db50] buffer underflow st=0 bufi=6507 size=19321
[mpeg @ 0xaaadb542db50] buffer underflow st=0 bufi=8548 size=19321
[mpeg @ 0xaaadb542db50] buffer underflow st=0 bufi=10589 size=19321
[mpeg @ 0xaaadb542db50] buffer underflow st=0 bufi=12630 size=19321
[mpeg @ 0xaaadb542db50] buffer underflow st=0 bufi=14671 size=19321
[mpeg @ 0xaaadb542db50] buffer underflow st=0 bufi=16712 size=19321
[mpeg @ 0xaaadb542db50] buffer underflow st=0 bufi=18753 size=19321
pts:363600 pts_time:4.04 dts:360000 dts_time:4 duration:0 duration_time:0 stream_index:0
[mpeg @ 0xaaadb542db50] buffer underflow st=0 bufi=1464 size=2974
pts:367200 pts_time:4.08 dts:363600 dts_time:4.04 duration:0 duration_time:0 stream_index:0
[mpeg @ 0xaaadb542db50] buffer underflow st=0 bufi=522 size=2474
pts:370800 pts_time:4.12 dts:367200 dts_time:4.08 duration:0 duration_time:0 stream_index:0
[mpeg @ 0xaaadb542db50] buffer underflow st=0 bufi=80 size=1807
pts:374400 pts_time:4.16 dts:370800 dts_time:4.12 duration:0 duration_time:0 stream_index:0
[mpeg @ 0xaaadb542db50] buffer underflow st=0 bufi=305 size=3435
[mpeg @ 0xaaadb542db50] buffer underflow st=0 bufi=2346 size=3435
pts:378000 pts_time:4.2 dts:374400 dts_time:4.16 duration:0 duration_time:0 stream_index:0
[mpeg @ 0xaaadb542db50] buffer underflow st=0 bufi=943 size=3342
[mpeg @ 0xaaadb542db50] buffer underflow st=0 bufi=2984 size=3342
pts:381600 pts_time:4.24 dts:378000 dts_time:4.2 duration:0 duration_time:0 stream_index:0
[mpeg @ 0xaaadb542db50] buffer underflow st=0 bufi=1674 size=1905
pts:385200 pts_time:4.28 dts:381600 dts_time:4.24 duration:0 duration_time:0 stream_index:0
[mpeg @ 0xaaadb542db50] buffer underflow st=0 bufi=1801 size=2584
pts:388800 pts_time:4.32 dts:385200 dts_time:4.28 duration:0 duration_time:0 stream_index:0
[mpeg @ 0xaaadb542db50] buffer underflow st=0 bufi=1249 size=2097
pts:392400 pts_time:4.36 dts:388800 dts_time:4.32 duration:0 duration_time:0 stream_index:0
[mpeg @ 0xaaadb542db50] buffer underflow st=0 bufi=1184 size=1780
pts:396000 pts_time:4.4 dts:392400 dts_time:4.36 duration:0 duration_time:0 stream_index:0
[mpeg @ 0xaaadb542db50] buffer underflow st=0 bufi=1436 size=2620
pts:399600 pts_time:4.44 dts:396000 dts_time:4.4 duration:0 duration_time:0 stream_index:0
[mpeg @ 0xaaadb542db50] buffer underflow st=0 bufi=848 size=2195
pts:403200 pts_time:4.48 dts:399600 dts_time:4.44 duration:0 duration_time:0 stream_index:0
[mpeg @ 0xaaadb542db50] buffer underflow st=0 bufi=685 size=10176
[mpeg @ 0xaaadb542db50] buffer underflow st=0 bufi=2726 size=10176
[mpeg @ 0xaaadb542db50] buffer underflow st=0 bufi=4767 size=10176
[mpeg @ 0xaaadb542db50] buffer underflow st=0 bufi=6808 size=10176
[mpeg @ 0xaaadb542db50] buffer underflow st=0 bufi=8849 size=10176
pts:406800 pts_time:4.52 dts:403200 dts_time:4.48 duration:0 duration_time:0 stream_index:0
[mpeg @ 0xaaadb542db50] buffer underflow st=0 bufi=705 size=3742
[mpeg @ 0xaaadb542db50] buffer underflow st=0 bufi=2746 size=3742
pts:410400 pts_time:4.56 dts:406800 dts_time:4.52 duration:0 duration_time:0 stream_index:0
[mpeg @ 0xaaadb542db50] buffer underflow st=0 bufi=1036 size=1916
pts:414000 pts_time:4.6 dts:410400 dts_time:4.56 duration:0 duration_time:0 stream_index:0
[mpeg @ 0xaaadb542db50] buffer underflow st=0 bufi=1152 size=2376
pts:417600 pts_time:4.64 dts:414000 dts_time:4.6 duration:0 duration_time:0 stream_index:0
[mpeg @ 0xaaadb542db50] buffer underflow st=0 bufi=781 size=2926
[mpeg @ 0xaaadb542db50] buffer underflow st=0 bufi=2822 size=2926
pts:421200 pts_time:4.68 dts:417600 dts_time:4.64 duration:0 duration_time:0 stream_index:0
pts:424800 pts_time:4.72 dts:421200 dts_time:4.68 duration:0 duration_time:0 stream_index:0
[mpeg @ 0xaaadb542db50] buffer underflow st=0 bufi=78 size=2278
[mpeg @ 0xaaadb542db50] buffer underflow st=0 bufi=2119 size=2278
pts:428400 pts_time:4.76 dts:424800 dts_time:4.72 duration:0 duration_time:0 stream_index:0
[mpeg @ 0xaaadb542db50] buffer underflow st=0 bufi=1873 size=2443
pts:432000 pts_time:4.8 dts:428400 dts_time:4.76 duration:0 duration_time:0 stream_index:0
[mpeg @ 0xaaadb542db50] buffer underflow st=0 bufi=1462 size=1925
pts:435600 pts_time:4.84 dts:432000 dts_time:4.8 duration:0 duration_time:0 stream_index:0
[mpeg @ 0xaaadb542db50] buffer underflow st=0 bufi=1569 size=2072
pts:439200 pts_time:4.88 dts:435600 dts_time:4.84 duration:0 duration_time:0 stream_index:0
[mpeg @ 0xaaadb542db50] buffer underflow st=0 bufi=1529 size=3557
pts:442800 pts_time:4.92 dts:439200 dts_time:4.88 duration:0 duration_time:0 stream_index:0
[mpeg @ 0xaaadb542db50] buffer underflow st=0 bufi=4 size=1582
pts:446400 pts_time:4.96 dts:442800 dts_time:4.92 duration:0 duration_time:0 stream_index:0
[mpeg @ 0xaaadb542db50] buffer underflow st=0 bufi=454 size=9931
[mpeg @ 0xaaadb542db50] buffer underflow st=0 bufi=2495 size=9931
[mpeg @ 0xaaadb542db50] buffer underflow st=0 bufi=4536 size=9931
[mpeg @ 0xaaadb542db50] buffer underflow st=0 bufi=6577 size=9931
[mpeg @ 0xaaadb542db50] buffer underflow st=0 bufi=8618 size=9931
pts:450000 pts_time:5 dts:446400 dts_time:4.96 duration:0 duration_time:0 stream_index:0
[mpeg @ 0xaaadb542db50] buffer underflow st=0 bufi=719 size=3324
[mpeg @ 0xaaadb542db50] buffer underflow st=0 bufi=2760 size=3324
pts:453600 pts_time:5.04 dts:450000 dts_time:5 duration:0 duration_time:0 stream_index:0
[mpeg @ 0xaaadb542db50] buffer underflow st=0 bufi=1468 size=3140
pts:457200 pts_time:5.08 dts:453600 dts_time:5.04 duration:0 duration_time:0 stream_index:0
[mpeg @ 0xaaadb542db50] buffer underflow st=0 bufi=360 size=2022
pts:460800 pts_time:5.12 dts:457200 dts_time:5.08 duration:0 duration_time:0 stream_index:0
[mpeg @ 0xaaadb542db50] buffer underflow st=0 bufi=370 size=2417
pts:464400 pts_time:5.16 dts:460800 dts_time:5.12 duration:0 duration_time:0 stream_index:0
[mpeg @ 0xaaadb542db50] buffer underflow st=0 bufi=2411 size=2417
[mpeg @ 0xaaadb542db50] buffer underflow st=0 bufi=2026 size=3243
pts:468000 pts_time:5.2 dts:464400 dts_time:5.16 duration:0 duration_time:0 stream_index:0
[mpeg @ 0xaaadb542db50] buffer underflow st=0 bufi=815 size=2056
pts:471600 pts_time:5.24 dts:468000 dts_time:5.2 duration:0 duration_time:0 stream_index:0
[mpeg @ 0xaaadb542db50] buffer underflow st=0 bufi=791 size=3183
[mpeg @ 0xaaadb542db50] buffer underflow st=0 bufi=2832 size=3183
pts:475200 pts_time:5.28 dts:471600 dts_time:5.24 duration:0 duration_time:0 stream_index:0
[mpeg @ 0xaaadb542db50] buffer underflow st=0 bufi=1681 size=2608
pts:478800 pts_time:5.32 dts:475200 dts_time:5.28 duration:0 duration_time:0 stream_index:0
[mpeg @ 0xaaadb542db50] buffer underflow st=0 bufi=1105 size=2251
pts:482400 pts_time:5.36 dts:478800 dts_time:5.32 duration:0 duration_time:0 stream_index:0
[mpeg @ 0xaaadb542db50] buffer underflow st=0 bufi=886 size=3862
[mpeg @ 0xaaadb542db50] buffer underflow st=0 bufi=2927 size=3862
pts:486000 pts_time:5.4 dts:482400 dts_time:5.36 duration:0 duration_time:0 stream_index:0
[mpeg @ 0xaaadb542db50] buffer underflow st=0 bufi=1097 size=2533
pts:489600 pts_time:5.44 dts:486000 dts_time:5.4 duration:0 duration_time:0 stream_index:0
[mpeg @ 0xaaadb542db50] buffer underflow st=0 bufi=596 size=10213
[mpeg @ 0xaaadb542db50] buffer underflow st=0 bufi=2637 size=10213
[mpeg @ 0xaaadb542db50] buffer underflow st=0 bufi=4678 size=10213
[mpeg @ 0xaaadb542db50] buffer underflow st=0 bufi=6719 size=10213
[mpeg @ 0xaaadb542db50] buffer underflow st=0 bufi=8760 size=10213
pts:493200 pts_time:5.48 dts:489600 dts_time:5.44 duration:0 duration_time:0 stream_index:0
[mpeg @ 0xaaadb542db50] buffer underflow st=0 bufi=579 size=3995
[mpeg @ 0xaaadb542db50] buffer underflow st=0 bufi=2620 size=3995
pts:496800 pts_time:5.52 dts:493200 dts_time:5.48 duration:0 duration_time:0 stream_index:0
[mpeg @ 0xaaadb542db50] buffer underflow st=0 bufi=657 size=2763
[mpeg @ 0xaaadb542db50] buffer underflow st=0 bufi=2698 size=2763
pts:500400 pts_time:5.56 dts:496800 dts_time:5.52 duration:0 duration_time:0 stream_index:0
[mpeg @ 0xaaadb542db50] buffer underflow st=0 bufi=1967 size=2249
pts:504000 pts_time:5.6 dts:500400 dts_time:5.56 duration:0 duration_time:0 stream_index:0
[mpeg @ 0xaaadb542db50] buffer underflow st=0 bufi=1750 size=2531
pts:507600 pts_time:5.64 dts:504000 dts_time:5.6 duration:0 duration_time:0 stream_index:0
[mpeg @ 0xaaadb542db50] buffer underflow st=0 bufi=1251 size=1674
pts:511200 pts_time:5.68 dts:507600 dts_time:5.64 duration:0 duration_time:0 stream_index:0
[mpeg @ 0xaaadb542db50] buffer underflow st=0 bufi=1609 size=2611
pts:514800 pts_time:5.72 dts:511200 dts_time:5.68 duration:0 duration_time:0 stream_index:0
[mpeg @ 0xaaadb542db50] buffer underflow st=0 bufi=1030 size=2597
pts:518400 pts_time:5.76 dts:514800 dts_time:5.72 duration:0 duration_time:0 stream_index:0
[mpeg @ 0xaaadb542db50] buffer underflow st=0 bufi=465 size=1815
pts:522000 pts_time:5.8 dts:518400 dts_time:5.76 duration:0 duration_time:0 stream_index:0
[mpeg @ 0xaaadb542db50] buffer underflow st=0 bufi=682 size=2171
pts:525600 pts_time:5.84 dts:522000 dts_time:5.8 duration:0 duration_time:0 stream_index:0
[mpeg @ 0xaaadb542db50] buffer underflow st=0 bufi=543 size=3575
[mpeg @ 0xaaadb542db50] buffer underflow st=0 bufi=2584 size=3575
pts:529200 pts_time:5.88 dts:525600 dts_time:5.84 duration:0 duration_time:0 stream_index:0
[mpeg @ 0xaaadb542db50] buffer underflow st=0 bufi=1041 size=1870
pts:532800 pts_time:5.92 dts:529200 dts_time:5.88 duration:0 duration_time:0 stream_index:0
[mpeg @ 0xaaadb542db50] buffer underflow st=0 bufi=1203 size=9703
[mpeg @ 0xaaadb542db50] buffer underflow st=0 bufi=3244 size=9703
[mpeg @ 0xaaadb542db50] buffer underflow st=0 bufi=5285 size=9703
[mpeg @ 0xaaadb542db50] buffer underflow st=0 bufi=7326 size=9703
[mpeg @ 0xaaadb542db50] buffer underflow st=0 bufi=9355 size=9703
pts:536400 pts_time:5.96 dts:532800 dts_time:5.92 duration:0 duration_time:0 stream_index:0
[mpeg @ 0xaaadb542db50] buffer underflow st=0 bufi=1684 size=3304
pts:540000 pts_time:6 dts:536400 dts_time:5.96 duration:0 duration_time:0 stream_index:0
[mpeg @ 0xaaadb542db50] buffer underflow st=0 bufi=412 size=3307
[mpeg @ 0xaaadb542db50] buffer underflow st=0 bufi=2453 size=3307
pts:543600 pts_time:6.04 dts:540000 dts_time:6 duration:0 duration_time:0 stream_index:0
[mpeg @ 0xaaadb542db50] buffer underflow st=0 bufi=1178 size=1843
pts:547200 pts_time:6.08 dts:543600 dts_time:6.04 duration:0 duration_time:0 stream_index:0
[mpeg @ 0xaaadb542db50] buffer underflow st=0 bufi=1367 size=1746
pts:550800 pts_time:6.12 dts:547200 dts_time:6.08 duration:0 duration_time:0 stream_index:0
[mpeg @ 0xaaadb542db50] buffer underflow st=0 bufi=1653 size=2669
pts:554400 pts_time:6.16 dts:550800 dts_time:6.12 duration:0 duration_time:0 stream_index:0
[mpeg @ 0xaaadb542db50] buffer underflow st=0 bufi=1016 size=1908
pts:558000 pts_time:6.2 dts:554400 dts_time:6.16 duration:0 duration_time:0 stream_index:0
[mpeg @ 0xaaadb542db50] buffer underflow st=0 bufi=1140 size=2689
pts:561600 pts_time:6.24 dts:558000 dts_time:6.2 duration:0 duration_time:0 stream_index:0
[mpeg @ 0xaaadb542db50] buffer underflow st=0 bufi=483 size=2047
pts:565200 pts_time:6.28 dts:561600 dts_time:6.24 duration:0 duration_time:0 stream_index:0
[mpeg @ 0xaaadb542db50] buffer underflow st=0 bufi=468 size=1836
pts:568800 pts_time:6.32 dts:565200 dts_time:6.28 duration:0 duration_time:0 stream_index:0
[mpeg @ 0xaaadb542db50] buffer underflow st=0 bufi=664 size=3347
[mpeg @ 0xaaadb542db50] buffer underflow st=0 bufi=2705 size=3347
pts:572400 pts_time:6.36 dts:568800 dts_time:6.32 duration:0 duration_time:0 stream_index:0
[mpeg @ 0xaaadb542db50] buffer underflow st=0 bufi=1390 size=2283
pts:576000 pts_time:6.4 dts:572400 dts_time:6.36 duration:0 duration_time:0 stream_index:0
[mpeg @ 0xaaadb542db50] buffer underflow st=0 bufi=1139 size=9850
[mpeg @ 0xaaadb542db50] buffer underflow st=0 bufi=3180 size=9850
[mpeg @ 0xaaadb542db50] buffer underflow st=0 bufi=5221 size=9850
[mpeg @ 0xaaadb542db50] buffer underflow st=0 bufi=7262 size=9850
[mpeg @ 0xaaadb542db50] buffer underflow st=0 bufi=9303 size=9850
pts:579600 pts_time:6.44 dts:576000 dts_time:6.4 duration:0 duration_time:0 stream_index:0
[mpeg @ 0xaaadb542db50] buffer underflow st=0 bufi=1485 size=3531
pts:583200 pts_time:6.48 dts:579600 dts_time:6.44 duration:0 duration_time:0 stream_index:0
[mpeg @ 0xaaadb542db50] buffer underflow st=0 bufi=3526 size=3531
[mpeg @ 0xaaadb542db50] buffer underflow st=0 bufi=2027 size=3146
pts:586800 pts_time:6.52 dts:583200 dts_time:6.48 duration:0 duration_time:0 stream_index:0
[mpeg @ 0xaaadb542db50] buffer underflow st=0 bufi=913 size=1589
pts:590400 pts_time:6.56 dts:586800 dts_time:6.52 duration:0 duration_time:0 stream_index:0
[mpeg @ 0xaaadb542db50] buffer underflow st=0 bufi=1356 size=1983
pts:594000 pts_time:6.6 dts:590400 dts_time:6.56 duration:0 duration_time:0 stream_index:0
[mpeg @ 0xaaadb542db50] buffer underflow st=0 bufi=1405 size=2031
pts:597600 pts_time:6.64 dts:594000 dts_time:6.6 duration:0 duration_time:0 stream_index:0
[mpeg @ 0xaaadb542db50] buffer underflow st=0 bufi=1406 size=2802
pts:601200 pts_time:6.68 dts:597600 dts_time:6.64 duration:0 duration_time:0 stream_index:0
[mpeg @ 0xaaadb542db50] buffer underflow st=0 bufi=636 size=2968
[mpeg @ 0xaaadb542db50] buffer underflow st=0 bufi=2677 size=2968
pts:604800 pts_time:6.72 dts:601200 dts_time:6.68 duration:0 duration_time:0 stream_index:0
pts:608400 pts_time:6.76 dts:604800 dts_time:6.72 duration:0 duration_time:0 stream_index:0
[mpeg @ 0xaaadb542db50] buffer underflow st=0 bufi=22 size=2233
[mpeg @ 0xaaadb542db50] buffer underflow st=0 bufi=2063 size=2233
pts:612000 pts_time:6.8 dts:608400 dts_time:6.76 duration:0 duration_time:0 stream_index:0
[mpeg @ 0xaaadb542db50] buffer underflow st=0 bufi=1862 size=3807
pts:615600 pts_time:6.84 dts:612000 dts_time:6.8 duration:0 duration_time:0 stream_index:0
[mpeg @ 0xaaadb542db50] buffer underflow st=0 bufi=87 size=1707
pts:619200 pts_time:6.88 dts:615600 dts_time:6.84 duration:0 duration_time:0 stream_index:0
[mpeg @ 0xaaadb542db50] buffer underflow st=0 bufi=412 size=9877
[mpeg @ 0xaaadb542db50] buffer underflow st=0 bufi=2453 size=9877
[mpeg @ 0xaaadb542db50] buffer underflow st=0 bufi=4494 size=9877
[mpeg @ 0xaaadb542db50] buffer underflow st=0 bufi=6535 size=9877
[mpeg @ 0xaaadb542db50] buffer underflow st=0 bufi=8576 size=9877
pts:622800 pts_time:6.92 dts:619200 dts_time:6.88 duration:0 duration_time:0 stream_index:0
[mpeg @ 0xaaadb542db50] buffer underflow st=0 bufi=731 size=3340
[mpeg @ 0xaaadb542db50] buffer underflow st=0 bufi=2772 size=3340
pts:626400 pts_time:6.96 dts:622800 dts_time:6.92 duration:0 duration_time:0 stream_index:0
[mpeg @ 0xaaadb542db50] buffer underflow st=0 bufi=1464 size=3230
pts:630000 pts_time:7 dts:626400 dts_time:6.96 duration:0 duration_time:0 stream_index:0
[mpeg @ 0xaaadb542db50] buffer underflow st=0 bufi=266 size=1969
pts:633600 pts_time:7.04 dts:630000 dts_time:7 duration:0 duration_time:0 stream_index:0
[mpeg @ 0xaaadb542db50] buffer underflow st=0 bufi=329 size=2099
pts:637200 pts_time:7.08 dts:633600 dts_time:7.04 duration:0 duration_time:0 stream_index:0
[mpeg @ 0xaaadb542db50] buffer underflow st=0 bufi=262 size=2738
[mpeg @ 0xaaadb542db50] buffer underflow st=0 bufi=2303 size=2738
pts:640800 pts_time:7.12 dts:637200 dts_time:7.08 duration:0 duration_time:0 stream_index:0
[mpeg @ 0xaaadb542db50] buffer underflow st=0 bufi=1597 size=1795
pts:644400 pts_time:7.16 dts:640800 dts_time:7.12 duration:0 duration_time:0 stream_index:0
[mpeg @ 0xaaadb542db50] buffer underflow st=0 bufi=1834 size=2946
pts:648000 pts_time:7.2 dts:644400 dts_time:7.16 duration:0 duration_time:0 stream_index:0
[mpeg @ 0xaaadb542db50] buffer underflow st=0 bufi=920 size=2561
pts:651600 pts_time:7.24 dts:648000 dts_time:7.2 duration:0 duration_time:0 stream_index:0
[mpeg @ 0xaaadb542db50] buffer underflow st=0 bufi=391 size=2210
pts:655200 pts_time:7.28 dts:651600 dts_time:7.24 duration:0 duration_time:0 stream_index:0
[mpeg @ 0xaaadb542db50] buffer underflow st=0 bufi=213 size=3737
[mpeg @ 0xaaadb542db50] buffer underflow st=0 bufi=2254 size=3737
pts:658800 pts_time:7.32 dts:655200 dts_time:7.28 duration:0 duration_time:0 stream_index:0
[mpeg @ 0xaaadb542db50] buffer underflow st=0 bufi=549 size=2604
[mpeg @ 0xaaadb542db50] buffer underflow st=0 bufi=2590 size=2604
pts:662400 pts_time:7.36 dts:658800 dts_time:7.32 duration:0 duration_time:0 stream_index:0
[mpeg @ 0xaaadb542db50] buffer underflow st=0 bufi=2006 size=10293
[mpeg @ 0xaaadb542db50] buffer underflow st=0 bufi=4047 size=10293
[mpeg @ 0xaaadb542db50] buffer underflow st=0 bufi=6088 size=10293
[mpeg @ 0xaaadb542db50] buffer underflow st=0 bufi=8129 size=10293
[mpeg @ 0xaaadb542db50] buffer underflow st=0 bufi=10170 size=10293
pts:666000 pts_time:7.4 dts:662400 dts_time:7.36 duration:0 duration_time:0 stream_index:0
[mpeg @ 0xaaadb542db50] buffer underflow st=0 bufi=1909 size=3961
[mpeg @ 0xaaadb542db50] buffer underflow st=0 bufi=3950 size=3961
pts:669600 pts_time:7.44 dts:666000 dts_time:7.4 duration:0 duration_time:0 stream_index:0
[mpeg @ 0xaaadb542db50] buffer underflow st=0 bufi=2021 size=3410
pts:673200 pts_time:7.48 dts:669600 dts_time:7.44 duration:0 duration_time:0 stream_index:0
[mpeg @ 0xaaadb542db50] buffer underflow st=0 bufi=643 size=2243
pts:676800 pts_time:7.52 dts:673200 dts_time:7.48 duration:0 duration_time:0 stream_index:0
[mpeg @ 0xaaadb542db50] buffer underflow st=0 bufi=432 size=2741
[mpeg @ 0xaaadb542db50] buffer underflow st=0 bufi=2473 size=2741
pts:680400 pts_time:7.56 dts:676800 dts_time:7.52 duration:0 duration_time:0 stream_index:0
[mpeg @ 0xaaadb542db50] buffer underflow st=0 bufi=1764 size=2743
pts:684000 pts_time:7.6 dts:680400 dts_time:7.56 duration:0 duration_time:0 stream_index:0
[mpeg @ 0xaaadb542db50] buffer underflow st=0 bufi=1053 size=2618
pts:687600 pts_time:7.64 dts:684000 dts_time:7.6 duration:0 duration_time:0 stream_index:0
[mpeg @ 0xaaadb542db50] buffer underflow st=0 bufi=467 size=2760
[mpeg @ 0xaaadb542db50] buffer underflow st=0 bufi=2508 size=2760
pts:691200 pts_time:7.68 dts:687600 dts_time:7.64 duration:0 duration_time:0 stream_index:0
pts:694800 pts_time:7.72 dts:691200 dts_time:7.68 duration:0 duration_time:0 stream_index:0
[mpeg @ 0xaaadb542db50] buffer underflow st=0 bufi=55 size=1609
pts:698400 pts_time:7.76 dts:694800 dts_time:7.72 duration:0 duration_time:0 stream_index:0
[mpeg @ 0xaaadb542db50] buffer underflow st=0 bufi=478 size=2920
[mpeg @ 0xaaadb542db50] buffer underflow st=0 bufi=2519 size=2920
pts:702000 pts_time:7.8 dts:698400 dts_time:7.76 duration:0 duration_time:0 stream_index:0
pts:705600 pts_time:7.84 dts:702000 dts_time:7.8 duration:0 duration_time:0 stream_index:0
[mpeg @ 0xaaadb542db50] buffer underflow st=0 bufi=164 size=9452
[mpeg @ 0xaaadb542db50] buffer underflow st=0 bufi=2205 size=9452
[mpeg @ 0xaaadb542db50] buffer underflow st=0 bufi=4246 size=9452
[mpeg @ 0xaaadb542db50] buffer underflow st=0 bufi=6287 size=9452
[mpeg @ 0xaaadb542db50] buffer underflow st=0 bufi=8328 size=9452
pts:709200 pts_time:7.88 dts:705600 dts_time:7.84 duration:0 duration_time:0 stream_index:0
[mpeg @ 0xaaadb542db50] buffer underflow st=0 bufi=908 size=3034
[mpeg @ 0xaaadb542db50] buffer underflow st=0 bufi=2949 size=3034
pts:712800 pts_time:7.92 dts:709200 dts_time:7.88 duration:0 duration_time:0 stream_index:0
[mpeg @ 0xaaadb542db50] buffer underflow st=0 bufi=1947 size=2568
pts:716400 pts_time:7.96 dts:712800 dts_time:7.92 duration:0 duration_time:0 stream_index:0
[mpeg @ 0xaaadb542db50] buffer underflow st=0 bufi=1411 size=1456
pts:720000 pts_time:8 dts:716400 dts_time:7.96 duration:0 duration_time:0 stream_index:0
[mpeg @ 0xaaadb542db50] buffer underflow st=0 bufi=1987 size=2242
pts:723600 pts_time:8.04 dts:720000 dts_time:8 duration:0 duration_time:0 stream_index:0
[mpeg @ 0xaaadb542db50] buffer underflow st=0 bufi=1777 size=2680
pts:727200 pts_time:8.08 dts:723600 dts_time:8.04 duration:0 duration_time:0 stream_index:0
[mpeg @ 0xaaadb542db50] buffer underflow st=0 bufi=1129 size=2070
pts:730800 pts_time:8.12 dts:727200 dts_time:8.08 duration:0 duration_time:0 stream_index:0
[mpeg @ 0xaaadb542db50] buffer underflow st=0 bufi=1091 size=2661
pts:734400 pts_time:8.16 dts:730800 dts_time:8.12 duration:0 duration_time:0 stream_index:0
[mpeg @ 0xaaadb542db50] buffer underflow st=0 bufi=462 size=2139
pts:738000 pts_time:8.2 dts:734400 dts_time:8.16 duration:0 duration_time:0 stream_index:0
[mpeg @ 0xaaadb542db50] buffer underflow st=0 bufi=355 size=1955
pts:741600 pts_time:8.24 dts:738000 dts_time:8.2 duration:0 duration_time:0 stream_index:0
[mpeg @ 0xaaadb542db50] buffer underflow st=0 bufi=432 size=3623
[mpeg @ 0xaaadb542db50] buffer underflow st=0 bufi=2473 size=3623
pts:745200 pts_time:8.28 dts:741600 dts_time:8.24 duration:0 duration_time:0 stream_index:0
[mpeg @ 0xaaadb542db50] buffer underflow st=0 bufi=882 size=2419
pts:748800 pts_time:8.32 dts:745200 dts_time:8.28 duration:0 duration_time:0 stream_index:0
[mpeg @ 0xaaadb542db50] buffer underflow st=0 bufi=495 size=9952
[mpeg @ 0xaaadb542db50] buffer underflow st=0 bufi=2536 size=9952
[mpeg @ 0xaaadb542db50] buffer underflow st=0 bufi=4577 size=9952
[mpeg @ 0xaaadb542db50] buffer underflow st=0 bufi=6618 size=9952
[mpeg @ 0xaaadb542db50] buffer underflow st=0 bufi=8659 size=9952
pts:752400 pts_time:8.36 dts:748800 dts_time:8.32 duration:0 duration_time:0 stream_index:0
[mpeg @ 0xaaadb542db50] buffer underflow st=0 bufi=739 size=2925
[mpeg @ 0xaaadb542db50] buffer underflow st=0 bufi=2780 size=2925
pts:756000 pts_time:8.4 dts:752400 dts_time:8.36 duration:0 duration_time:0 stream_index:0
[mpeg @ 0xaaadb542db50] buffer underflow st=0 bufi=1887 size=2509
pts:759600 pts_time:8.44 dts:756000 dts_time:8.4 duration:0 duration_time:0 stream_index:0
[mpeg @ 0xaaadb542db50] buffer underflow st=0 bufi=1410 size=1641
pts:763200 pts_time:8.48 dts:759600 dts_time:8.44 duration:0 duration_time:0 stream_index:0
[mpeg @ 0xaaadb542db50] buffer underflow st=0 bufi=1801 size=2176
pts:766800 pts_time:8.52 dts:763200 dts_time:8.48 duration:0 duration_time:0 stream_index:0
[mpeg @ 0xaaadb542db50] buffer underflow st=0 bufi=1657 size=1833
pts:770400 pts_time:8.56 dts:766800 dts_time:8.52 duration:0 duration_time:0 stream_index:0
[mpeg @ 0xaaadb542db50] buffer underflow st=0 bufi=1856 size=2114
pts:774000 pts_time:8.6 dts:770400 dts_time:8.56 duration:0 duration_time:0 stream_index:0
[mpeg @ 0xaaadb542db50] buffer underflow st=0 bufi=1774 size=3380
pts:777600 pts_time:8.64 dts:774000 dts_time:8.6 duration:0 duration_time:0 stream_index:0
[mpeg @ 0xaaadb542db50] buffer underflow st=0 bufi=426 size=1918
pts:781200 pts_time:8.68 dts:777600 dts_time:8.64 duration:0 duration_time:0 stream_index:0
[mpeg @ 0xaaadb542db50] buffer underflow st=0 bufi=540 size=2062
pts:784800 pts_time:8.72 dts:781200 dts_time:8.68 duration:0 duration_time:0 stream_index:0
[mpeg @ 0xaaadb542db50] buffer underflow st=0 bufi=510 size=3387
[mpeg @ 0xaaadb542db50] buffer underflow st=0 bufi=2539 size=3387
pts:788400 pts_time:8.76 dts:784800 dts_time:8.72 duration:0 duration_time:0 stream_index:0
[mpeg @ 0xaaadb542db50] buffer underflow st=0 bufi=1184 size=1684
pts:792000 pts_time:8.8 dts:788400 dts_time:8.76 duration:0 duration_time:0 stream_index:0
[mpeg @ 0xaaadb542db50] buffer underflow st=0 bufi=1532 size=9885
[mpeg @ 0xaaadb542db50] buffer underflow st=0 bufi=3573 size=9885
[mpeg @ 0xaaadb542db50] buffer underflow st=0 bufi=5614 size=9885
[mpeg @ 0xaaadb542db50] buffer underflow st=0 bufi=7655 size=9885
[mpeg @ 0xaaadb542db50] buffer underflow st=0 bufi=9696 size=9885
pts:795600 pts_time:8.84 dts:792000 dts_time:8.8 duration:0 duration_time:0 stream_index:0
[mpeg @ 0xaaadb542db50] buffer underflow st=0 bufi=1843 size=3312
pts:799200 pts_time:8.88 dts:795600 dts_time:8.84 duration:0 duration_time:0 stream_index:0
[mpeg @ 0xaaadb542db50] buffer underflow st=0 bufi=563 size=3112
[mpeg @ 0xaaadb542db50] buffer underflow st=0 bufi=2604 size=3112
pts:802800 pts_time:8.92 dts:799200 dts_time:8.88 duration:0 duration_time:0 stream_index:0
[mpeg @ 0xaaadb542db50] buffer underflow st=0 bufi=1524 size=2077
pts:806400 pts_time:8.96 dts:802800 dts_time:8.92 duration:0 duration_time:0 stream_index:0
[mpeg @ 0xaaadb542db50] buffer underflow st=0 bufi=1479 size=1988
pts:810000 pts_time:9 dts:806400 dts_time:8.96 duration:0 duration_time:0 stream_index:0
[mpeg @ 0xaaadb542db50] buffer underflow st=0 bufi=1523 size=2708
pts:813600 pts_time:9.04 dts:810000 dts_time:9 duration:0 duration_time:0 stream_index:0
[mpeg @ 0xaaadb542db50] buffer underflow st=0 bufi=847 size=1710
pts:817200 pts_time:9.08 dts:813600 dts_time:9.04 duration:0 duration_time:0 stream_index:0
[mpeg @ 0xaaadb542db50] buffer underflow st=0 bufi=1169 size=2758
pts:820800 pts_time:9.12 dts:817200 dts_time:9.08 duration:0 duration_time:0 stream_index:0
[mpeg @ 0xaaadb542db50] buffer underflow st=0 bufi=443 size=2185
pts:824400 pts_time:9.16 dts:820800 dts_time:9.12 duration:0 duration_time:0 stream_index:0
[mpeg @ 0xaaadb542db50] buffer underflow st=0 bufi=290 size=1990
pts:828000 pts_time:9.2 dts:824400 dts_time:9.16 duration:0 duration_time:0 stream_index:0
[mpeg @ 0xaaadb542db50] buffer underflow st=0 bufi=332 size=3701
[mpeg @ 0xaaadb542db50] buffer underflow st=0 bufi=2373 size=3701
pts:831600 pts_time:9.24 dts:828000 dts_time:9.2 duration:0 duration_time:0 stream_index:0
[mpeg @ 0xaaadb542db50] buffer underflow st=0 bufi=704 size=2480
pts:835200 pts_time:9.28 dts:831600 dts_time:9.24 duration:0 duration_time:0 stream_index:0
[mpeg @ 0xaaadb542db50] buffer underflow st=0 bufi=256 size=10215
[mpeg @ 0xaaadb542db50] buffer underflow st=0 bufi=2297 size=10215
[mpeg @ 0xaaadb542db50] buffer underflow st=0 bufi=4338 size=10215
[mpeg @ 0xaaadb542db50] buffer underflow st=0 bufi=6379 size=10215
[mpeg @ 0xaaadb542db50] buffer underflow st=0 bufi=8420 size=10215
pts:838800 pts_time:9.32 dts:835200 dts_time:9.28 duration:0 duration_time:0 stream_index:0
[mpeg @ 0xaaadb542db50] buffer underflow st=0 bufi=237 size=4026
[mpeg @ 0xaaadb542db50] buffer underflow st=0 bufi=2278 size=4026
pts:842400 pts_time:9.36 dts:838800 dts_time:9.32 duration:0 duration_time:0 stream_index:0
[mpeg @ 0xaaadb542db50] buffer underflow st=0 bufi=284 size=3349
[mpeg @ 0xaaadb542db50] buffer underflow st=0 bufi=2325 size=3349
pts:846000 pts_time:9.4 dts:842400 dts_time:9.36 duration:0 duration_time:0 stream_index:0
[mpeg @ 0xaaadb542db50] buffer underflow st=0 bufi=1008 size=2396
pts:849600 pts_time:9.44 dts:846000 dts_time:9.4 duration:0 duration_time:0 stream_index:0
[mpeg @ 0xaaadb542db50] buffer underflow st=0 bufi=644 size=2770
[mpeg @ 0xaaadb542db50] buffer underflow st=0 bufi=2685 size=2770
pts:853200 pts_time:9.48 dts:849600 dts_time:9.44 duration:0 duration_time:0 stream_index:0
[mpeg @ 0xaaadb542db50] buffer underflow st=0 bufi=1947 size=2786
pts:856800 pts_time:9.52 dts:853200 dts_time:9.48 duration:0 duration_time:0 stream_index:0
[mpeg @ 0xaaadb542db50] buffer underflow st=0 bufi=1193 size=2533
pts:860400 pts_time:9.56 dts:856800 dts_time:9.52 duration:0 duration_time:0 stream_index:0
[mpeg @ 0xaaadb542db50] buffer underflow st=0 bufi=692 size=3025
[mpeg @ 0xaaadb542db50] buffer underflow st=0 bufi=2733 size=3025
pts:864000 pts_time:9.6 dts:860400 dts_time:9.56 duration:0 duration_time:0 stream_index:0
[mpeg @ 0xaaadb542db50] buffer underflow st=0 bufi=1740 size=2210
pts:867600 pts_time:9.64 dts:864000 dts_time:9.6 duration:0 duration_time:0 stream_index:0
[mpeg @ 0xaaadb542db50] buffer underflow st=0 bufi=1562 size=2628
pts:871200 pts_time:9.68 dts:867600 dts_time:9.64 duration:0 duration_time:0 stream_index:0
[mpeg @ 0xaaadb542db50] buffer underflow st=0 bufi=966 size=4005
[mpeg @ 0xaaadb542db50] buffer underflow st=0 bufi=3007 size=4005
pts:874800 pts_time:9.72 dts:871200 dts_time:9.68 duration:0 duration_time:0 stream_index:0
[mpeg @ 0xaaadb542db50] buffer underflow st=0 bufi=1034 size=1986
pts:878400 pts_time:9.76 dts:874800 dts_time:9.72 duration:0 duration_time:0 stream_index:0
[mpeg @ 0xaaadb542db50] buffer underflow st=0 bufi=1080 size=9686
[mpeg @ 0xaaadb542db50] buffer underflow st=0 bufi=3121 size=9686
[mpeg @ 0xaaadb542db50] buffer underflow st=0 bufi=5162 size=9686
[mpeg @ 0xaaadb542db50] buffer underflow st=0 bufi=7203 size=9686
[mpeg @ 0xaaadb542db50] buffer underflow st=0 bufi=9244 size=9686
pts:882000 pts_time:9.8 dts:878400 dts_time:9.76 duration:0 duration_time:0 stream_index:0
[mpeg @ 0xaaadb542db50] buffer underflow st=0 bufi=1590 size=3341
pts:885600 pts_time:9.84 dts:882000 dts_time:9.8 duration:0 duration_time:0 stream_index:0
[mpeg @ 0xaaadb542db50] buffer underflow st=0 bufi=281 size=2997
[mpeg @ 0xaaadb542db50] buffer underflow st=0 bufi=2322 size=2997
pts:889200 pts_time:9.88 dts:885600 dts_time:9.84 duration:0 duration_time:0 stream_index:0
[mpeg @ 0xaaadb542db50] buffer underflow st=0 bufi=1357 size=1961
pts:892800 pts_time:9.92 dts:889200 dts_time:9.88 duration:0 duration_time:0 stream_index:0
[mpeg @ 0xaaadb542db50] buffer underflow st=0 bufi=1428 size=1781
[mpeg @ 0xaaadb542db50] buffer underflow st=0 bufi=1679 size=2137
pts:896400 pts_time:9.96 dts:892800 dts_time:9.92 duration:0 duration_time:0 stream_index:0
pts:900000 pts_time:10 dts:896400 dts_time:9.96 duration:0 duration_time:0 stream_index:0
